{
  "accessors": [
    {
      "bufferView": 2,
      "componentType": 5126,
      "count": 20532,
      "max": [
        0.6071071624755859,
        3.1895904541015625,
        2.1128578186035156
      ],
      "min": [
        -0.6071071624755859,
        -0.001356363296508789,
        -1.9615135192871094
      ],
      "type": "VEC3"
    },
    {
      "bufferView": 2,
      "byteOffset": 246384,
      "componentType": 5126,
      "count": 20532,
      "max": [
        0.9999958276748657,
        0.9998972415924072,
        0.9999971985816956
      ],
      "min": [
        -0.9999868869781494,
        -0.9999964237213135,
        -0.9999511241912842
      ],
      "type": "VEC3"
    },
    {
      "bufferView": 3,
      "componentType": 5126,
      "count": 20532,
      "max": [
        0.999999463558197,
        0.9998053312301636,
        0.9998741745948792,
        1.0
      ],
      "min": [
        -0.9999992847442627,
        -0.999995231628418,
        -0.9999523162841797,
        -1.0
      ],
      "type": "VEC4"
    },
    {
      "bufferView": 1,
      "componentType": 5126,
      "count": 20532,
      "max": [
        0.9917005300521851,
        0.9920740723609924
      ],
      "min": [
        0.008556907996535301,
        0.007957935333251953
      ],
      "type": "VEC2"
    },
    {
      "bufferView": 1,
      "byteOffset": 164256,
      "componentType": 5126,
      "count": 20532,
      "max": [
        0.9917005300521851,
        0.9920740723609924
      ],
      "min": [
        0.008556907996535301,
        0.007957935333251953
      ],
      "type": "VEC2"
    },
    {
      "bufferView": 1,
      "byteOffset": 328512,
      "componentType": 5126,
      "count": 20532,
      "max": [
        0.9917005300521851,
        0.9920740723609924
      ],
      "min": [
        0.008556907996535301,
        0.007957935333251953
      ],
      "type": "VEC2"
    },
    {
      "bufferView": 1,
      "byteOffset": 492768,
      "componentType": 5126,
      "count": 20532,
      "max": [
        0.9917005300521851,
        0.9920740723609924
      ],
      "min": [
        0.008556907996535301,
        0.007957935333251953
      ],
      "type": "VEC2"
    },
    {
      "bufferView": 1,
      "byteOffset": 657024,
      "componentType": 5126,
      "count": 20532,
      "max": [
        0.9917005300521851,
        0.9920740723609924
      ],
      "min": [
        0.008556907996535301,
        0.007957935333251953
      ],
      "type": "VEC2"
    },
    {
      "bufferView": 0,
      "componentType": 5125,
      "count": 112608,
      "type": "SCALAR"
    }
  ],
  "asset": {
    "extras": {
      "author": "dhiren-sah (https://sketchfab.com/dhiren-sah)",
      "license": "CC-BY-4.0 (http://creativecommons.org/licenses/by/4.0/)",
      "source": "https://sketchfab.com/3d-models/cat-739871e46e17431ea466e7d1070dd849",
      "title": "Cat"
    },
    "generator": "Sketchfab-16.9.0",
    "version": "2.0"
  },
  "bufferViews": [
    {
      "buffer": 0,
      "byteLength": 450432,
      "name": "floatBufferViews",
      "target": 34963
    },
    {
      "buffer": 0,
      "byteLength": 821280,
      "byteOffset": 450432,
      "byteStride": 8,
      "name": "floatBufferViews",
      "target": 34962
    },
    {
      "buffer": 0,
      "byteLength": 492768,
      "byteOffset": 1271712,
      "byteStride": 12,
      "name": "floatBufferViews",
      "target": 34962
    },
    {
      "buffer": 0,
      "byteLength": 328512,
      "byteOffset": 1764480,
      "byteStride": 16,
      "name": "floatBufferViews",
      "target": 34962
    }
  ],
  "buffers": [
    {
      "byteLength": 2092992,
      "uri": "scene.bin"
    }
  ],
  "extensionsRequired": [
    "KHR_materials_pbrSpecularGlossiness"
  ],
  "extensionsUsed": [
    "KHR_materials_pbrSpecularGlossiness"
  ],
  "images": [
    {
      "uri": "textures/material_0_diffuse.png"
    },
    {
      "uri": "textures/material_0_specularGlossiness.png"
    },
    {
      "uri": "textures/material_0_normal.png"
    },
    {
      "uri": "textures/material_0_occlusion.png"
    }
  ],
  "materials": [
    {
      "doubleSided": true,
      "extensions": {
        "KHR_materials_pbrSpecularGlossiness": {
          "diffuseFactor": [
            1.0,
            1.0,
            1.0,
            1.0
          ],
          "diffuseTexture": {
            "index": 0
          },
          "glossinessFactor": 1.0,
          "specularFactor": [
            1.0,
            1.0,
            1.0
          ],
          "specularGlossinessTexture": {
            "index": 1
          }
        }
      },
      "name": "material_0",
      "normalTexture": {
        "index": 2
      },
      "occlusionTexture": {
        "index": 3
      }
    }
  ],
  "meshes": [
    {
      "name": "Object_0",
      "primitives": [
        {
          "attributes": {
            "NORMAL": 1,
            "POSITION": 0,
            "TANGENT": 2,
            "TEXCOORD_0": 3,
            "TEXCOORD_1": 4,
            "TEXCOORD_2": 5,
            "TEXCOORD_3": 6,
            "TEXCOORD_4": 7
          },
          "indices": 8,
          "material": 0,
          "mode": 4
        }
      ]
    }
  ],
  "nodes": [
    {
      "children": [
        1
      ],
      "matrix": [
        1.0,
        0.0,
        0.0,
        0.0,
        0.0,
        2.220446049250313e-16,
        -1.0,
        0.0,
        0.0,
        1.0,
        2.220446049250313e-16,
        0.0,
        0.0,
        0.0,
        0.0,
        1.0
      ],
      "name": "Sketchfab_model"
    },
    {
      "children": [
        2
      ],
      "name": "root"
    },
    {
      "children": [
        3
      ],
      "matrix": [
        1.0,
        0.0,
        0.0,
        0.0,
        0.0,
        2.220446049250313e-16,
        1.0,
        0.0,
        0.0,
        -1.0,
        2.220446049250313e-16,
        0.0,
        0.0,
        0.0,
        0.0,
        1.0
      ],
      "name": "GLTF_SceneRootNode"
    },
    {
      "children": [
        4
      ],
      "matrix": [
        0.009999999776482582,
        0.0,
        0.0,
        0.0,
        0.0,
        0.009999999776482582,
        0.0,
        0.0,
        0.0,
        0.0,
        0.009999999776482582,
        0.0,
        0.0,
        0.0,
        0.0,
        1.0
      ],
      "name": "RootNode.0_0"
    },
    {
      "children": [
        5
      ],
      "name": "cat.1_1"
    },
    {
      "mesh": 0,
      "name": "Object_5"
    }
  ],
  "samplers": [
    {
      "magFilter": 9729,
      "minFilter": 9987,
      "wrapS": 10497,
      "wrapT": 10497
    }
  ],
  "scene": 0,
  "scenes": [
    {
      "name": "Sketchfab_Scene",
      "nodes": [
        0
      ]
    }
  ],
  "textures": [
    {
      "sampler": 0,
      "source": 0
    },
    {
      "sampler": 0,
      "source": 1
    },
    {
      "sampler": 0,
      "source": 2
    },
    {
      "sampler": 0,
      "source": 3
    }
  ]
}
